<?xml version="1.0" encoding="UTF-8"?>
<svg enable-background="new 0 0 175.6 50" version="1.1" viewBox="0 0 175.6 50" xml:space="preserve" xmlns="http://www.w3.org/2000/svg"> <g fill="#064dd9">  <polygon points="4.2 17.2 12.2 17.2 8 44.8 0 44.8"></polygon>  <path d="m4.4 9.9c0-2.7 2.2-4.9 4.9-4.9s4.9 2.2 4.9 4.9-2.2 4.9-4.9 4.9-4.9-2.2-4.9-4.9z"></path>  <path d="m41.3 44.8h8.2l-10.3-37.4h-7.3l-21.5 37.4h8.3l5.7-9.9h14.2l2.7 9.9zm-12.8-16.9 5.5-9.6 2.6 9.6h-8.1z"></path> </g>   <path d="m114.8 22.5h1.8l3.9 9.1h-2.1l-0.8-2h-3.8l-0.8 2h-2l3.8-9.1zm2.1 5.2-1.2-2.9-1.2 2.9h2.4z" fill="#064dd9"></path>  <path d="m121 29.1v-4.4h2v3.9c0 0.9 0.5 1.4 1.2 1.4s1.2-0.5 1.2-1.4v-3.9h2v6.9h-2v-1c-0.5 0.6-1 1.1-2 1.1-1.5-0.1-2.4-1-2.4-2.6z" fill="#064dd9"></path>  <path d="m129.1 29.5v-3.3h-0.8v-1.7h0.8v-1.8h2v1.8h1.6v1.7h-1.6v2.9c0 0.5 0.2 0.7 0.6 0.7s0.7-0.1 1-0.2v1.6c-0.4 0.2-0.9 0.4-1.5 0.4-1.3 0-2.1-0.4-2.1-2.1z" fill="#064dd9"></path>  <path d="m133.3 28.1c0-2 1.6-3.6 3.7-3.6s3.7 1.6 3.7 3.5c0 2-1.6 3.6-3.7 3.6-2.1 0.1-3.7-1.5-3.7-3.5zm5.6 0c0-1-0.7-1.9-1.8-1.9s-1.8 0.9-1.8 1.9 0.7 1.9 1.8 1.9 1.8-0.9 1.8-1.9z" fill="#064dd9"></path>  <path d="m145.2 28.1c0-2 1.4-3.6 3.4-3.6 2.3 0 3.4 1.8 3.4 3.7v0.5h-4.8c0.2 0.9 0.8 1.4 1.7 1.4 0.6 0 1.1-0.2 1.7-0.7l1.1 1c-0.6 0.8-1.6 1.3-2.8 1.3-2.1-0.1-3.7-1.5-3.7-3.6zm4.9-0.6c-0.1-0.9-0.6-1.5-1.5-1.5-0.8 0-1.3 0.6-1.5 1.5h3z" fill="#064dd9"></path>  <path d="m153.5 29.5v-3.3h-0.8v-1.7h0.8v-1.8h2v1.8h1.6v1.7h-1.6v2.9c0 0.5 0.2 0.7 0.6 0.7s0.7-0.1 1-0.2v1.6c-0.4 0.2-0.9 0.4-1.5 0.4-1.3 0-2.1-0.5-2.1-2.1z" fill="#064dd9"></path>  <path d="m110.9 35.4h2v3.5c0.5-0.6 1-1.1 2-1.1 1.5 0 2.4 1 2.4 2.5v4.4h-2v-3.7c0-0.9-0.5-1.4-1.2-1.4s-1.2 0.5-1.2 1.4v3.9h-2v-9.5z" fill="#064dd9"></path>  <path d="m118.4 41.4c0-2.3 1.5-3.6 3.1-3.6 1 0 1.7 0.5 2.1 1v-0.8h2v6.9h-2v-1c-0.5 0.6-1.1 1.1-2.1 1.1-1.6 0-3.1-1.3-3.1-3.6zm5.3 0c0-1.2-0.8-2-1.7-2s-1.7 0.7-1.7 1.9c0 1.1 0.8 1.9 1.7 1.9 0.9 0.1 1.7-0.6 1.7-1.8z" fill="#064dd9"></path>  <path d="m129 43.9v0.9h-2v-9.4h2v3.5c0.5-0.6 1.1-1.1 2.1-1.1 1.6 0 3.1 1.3 3.1 3.5 0 2.3-1.5 3.5-3.1 3.5-0.9 0.2-1.6-0.3-2.1-0.9zm3.4-2.5c0-1.2-0.8-2-1.7-2s-1.7 0.8-1.7 1.9 0.8 1.9 1.7 1.9c0.9 0.1 1.7-0.6 1.7-1.8z" fill="#064dd9"></path>  <path d="m135.6 37.9h2v6.9h-2v-6.9z" fill="#064dd9"></path>  <path d="m139.4 42.9v-3.3h-0.8v-1.7h0.8v-1.8h2v1.8h1.6v1.7h-1.6v2.9c0 0.5 0.2 0.7 0.6 0.7s0.7-0.1 1-0.2v1.6c-0.4 0.2-0.9 0.4-1.5 0.4-1.3 0-2.1-0.5-2.1-2.1z" fill="#064dd9"></path>  <path d="m143.7 41.4c0-2.3 1.5-3.6 3.1-3.6 1 0 1.7 0.5 2.1 1v-0.8h2v6.9h-2v-1c-0.5 0.6-1.1 1.1-2.1 1.1-1.6 0-3.1-1.3-3.1-3.6zm5.3 0c0-1.2-0.8-2-1.7-2s-1.7 0.7-1.7 1.9c0 1.1 0.8 1.9 1.7 1.9 0.9 0.1 1.7-0.6 1.7-1.8z" fill="#064dd9"></path>  <path d="m152.7 42.9v-3.3h-0.8v-1.7h0.8v-1.8h2v1.8h1.6v1.7h-1.6v2.9c0 0.5 0.2 0.7 0.6 0.7s0.7-0.1 1-0.2v1.6c-0.4 0.2-0.9 0.4-1.5 0.4-1.3 0-2.1-0.5-2.1-2.1z" fill="#064dd9"></path>  <path d="m157.6 37.9h2v6.9h-2v-6.9z" fill="#064dd9"></path>  <path d="m160.7 41.4c0-2 1.6-3.6 3.7-3.6s3.7 1.6 3.7 3.5c0 2-1.6 3.6-3.7 3.6-2.1 0.1-3.7-1.5-3.7-3.5zm5.6 0c0-1-0.7-1.9-1.8-1.9s-1.8 0.9-1.8 1.9 0.7 1.9 1.8 1.9 1.8-0.8 1.8-1.9z" fill="#064dd9"></path>  <path d="m169.3 37.9h2v1c0.5-0.6 1-1.1 2-1.1 1.5 0 2.4 1 2.4 2.5v4.4h-2v-3.7c0-0.9-0.5-1.4-1.2-1.4s-1.2 0.5-1.2 1.4v3.9h-2v-7z" fill="#064dd9"></path>     <path d="m136.6 35c0.6 0 1.1 0.5 1.1 1.1s-0.5 1.1-1.1 1.1-1.1-0.5-1.1-1.1 0.5-1.1 1.1-1.1z" fill="#064dd9"></path>       <path d="m158.5 35c0.6 0 1.1 0.5 1.1 1.1s-0.5 1.1-1.1 1.1-1.1-0.5-1.1-1.1 0.5-1.1 1.1-1.1z" fill="#064dd9"></path>      <path d="m80.3 7.4h-10.4c-7.3 0-13.4 5.7-14.3 13l-3.6 24.4h6.3l2.7-9.9h20.4v9.9h6l2.8-17.8h-1.2-1.1c-4.5-0.5-8.2-4.1-8.8-8.6-0.1-1-0.1-1.9 0-2.8l1.2-8.2" fill="#8c8c87"></path>     <polygon points="60.7 44.8 67 44.8 70.1 37.4 62.8 37.4" fill="#8c8c87"></polygon>    <path d="m97.3 5c4 0 7.3 3.3 7.3 7.3 0 0.5 0 1-0.1 1.4l-3.4 22.3v0.2c0 0.7 0.5 1.2 1.2 1.2h1.2v4.9h-3.4c-2.7 0-4.9-2.2-4.9-4.9v-13h-6.2-0.8c-3.4-0.4-6.2-3.1-6.6-6.5-0.1-0.8-0.1-1.6 0-2.3l1.6-10.6h14.1z" fill="#8c8c87"></path>  </svg>
